<mxfile host="app.diagrams.net" agent="Mozilla/5.0 (Windows NT 10.0; Win64; x64) AppleWebKit/537.36 (KHTML, like Gecko) Chrome/124.0.0.0 Safari/537.36" version="28.2.7" pages="3">
  <diagram name="Концептуален модел" id="dYPgF4JKymdjszaEyosC">
    <mxGraphModel dx="1991" dy="628" grid="1" gridSize="10" guides="1" tooltips="1" connect="1" arrows="1" fold="1" page="1" pageScale="1" pageWidth="850" pageHeight="1100" math="0" shadow="0">
      <root>
        <mxCell id="0" />
        <mxCell id="1" parent="0" />
        <mxCell id="xXVBoHOG3CjWOZ_luBMX-74" style="edgeStyle=orthogonalEdgeStyle;rounded=0;orthogonalLoop=1;jettySize=auto;html=1;entryX=0.5;entryY=1;entryDx=0;entryDy=0;" edge="1" parent="1" source="xXVBoHOG3CjWOZ_luBMX-1" target="xXVBoHOG3CjWOZ_luBMX-73">
          <mxGeometry relative="1" as="geometry" />
        </mxCell>
        <mxCell id="xXVBoHOG3CjWOZ_luBMX-84" style="edgeStyle=orthogonalEdgeStyle;rounded=0;orthogonalLoop=1;jettySize=auto;html=1;entryX=0.5;entryY=1;entryDx=0;entryDy=0;" edge="1" parent="1" source="xXVBoHOG3CjWOZ_luBMX-1" target="xXVBoHOG3CjWOZ_luBMX-83">
          <mxGeometry relative="1" as="geometry" />
        </mxCell>
        <mxCell id="xXVBoHOG3CjWOZ_luBMX-93" style="edgeStyle=orthogonalEdgeStyle;rounded=0;orthogonalLoop=1;jettySize=auto;html=1;entryX=0;entryY=0.5;entryDx=0;entryDy=0;" edge="1" parent="1" source="xXVBoHOG3CjWOZ_luBMX-1" target="xXVBoHOG3CjWOZ_luBMX-92">
          <mxGeometry relative="1" as="geometry" />
        </mxCell>
        <mxCell id="xXVBoHOG3CjWOZ_luBMX-96" style="edgeStyle=orthogonalEdgeStyle;rounded=0;orthogonalLoop=1;jettySize=auto;html=1;entryX=0;entryY=0.5;entryDx=0;entryDy=0;" edge="1" parent="1" source="xXVBoHOG3CjWOZ_luBMX-1" target="xXVBoHOG3CjWOZ_luBMX-95">
          <mxGeometry relative="1" as="geometry">
            <mxPoint x="220" y="700" as="targetPoint" />
            <Array as="points">
              <mxPoint x="220" y="690" />
            </Array>
          </mxGeometry>
        </mxCell>
        <mxCell id="xXVBoHOG3CjWOZ_luBMX-1" value="User" style="whiteSpace=wrap;html=1;align=center;" vertex="1" parent="1">
          <mxGeometry x="170" y="590" width="100" height="40" as="geometry" />
        </mxCell>
        <mxCell id="xXVBoHOG3CjWOZ_luBMX-12" style="edgeStyle=orthogonalEdgeStyle;rounded=0;orthogonalLoop=1;jettySize=auto;html=1;entryX=0.25;entryY=0;entryDx=0;entryDy=0;" edge="1" parent="1" source="xXVBoHOG3CjWOZ_luBMX-2" target="xXVBoHOG3CjWOZ_luBMX-1">
          <mxGeometry relative="1" as="geometry" />
        </mxCell>
        <mxCell id="xXVBoHOG3CjWOZ_luBMX-2" value="user_id" style="ellipse;whiteSpace=wrap;html=1;align=center;fontStyle=4;" vertex="1" parent="1">
          <mxGeometry x="30" y="480" width="100" height="40" as="geometry" />
        </mxCell>
        <mxCell id="xXVBoHOG3CjWOZ_luBMX-3" value="username" style="ellipse;whiteSpace=wrap;html=1;align=center;" vertex="1" parent="1">
          <mxGeometry x="30" y="520" width="100" height="40" as="geometry" />
        </mxCell>
        <mxCell id="xXVBoHOG3CjWOZ_luBMX-14" style="edgeStyle=orthogonalEdgeStyle;rounded=0;orthogonalLoop=1;jettySize=auto;html=1;entryX=0;entryY=0.25;entryDx=0;entryDy=0;" edge="1" parent="1" source="xXVBoHOG3CjWOZ_luBMX-4" target="xXVBoHOG3CjWOZ_luBMX-1">
          <mxGeometry relative="1" as="geometry" />
        </mxCell>
        <mxCell id="xXVBoHOG3CjWOZ_luBMX-4" value="password" style="ellipse;whiteSpace=wrap;html=1;align=center;" vertex="1" parent="1">
          <mxGeometry x="30" y="560" width="100" height="40" as="geometry" />
        </mxCell>
        <mxCell id="xXVBoHOG3CjWOZ_luBMX-15" style="edgeStyle=orthogonalEdgeStyle;rounded=0;orthogonalLoop=1;jettySize=auto;html=1;entryX=0;entryY=0.75;entryDx=0;entryDy=0;" edge="1" parent="1" source="xXVBoHOG3CjWOZ_luBMX-5" target="xXVBoHOG3CjWOZ_luBMX-1">
          <mxGeometry relative="1" as="geometry" />
        </mxCell>
        <mxCell id="xXVBoHOG3CjWOZ_luBMX-5" value="created_at" style="ellipse;whiteSpace=wrap;html=1;align=center;" vertex="1" parent="1">
          <mxGeometry x="30" y="600" width="100" height="40" as="geometry" />
        </mxCell>
        <mxCell id="xXVBoHOG3CjWOZ_luBMX-6" value="status" style="ellipse;whiteSpace=wrap;html=1;align=center;" vertex="1" parent="1">
          <mxGeometry x="30" y="640" width="100" height="40" as="geometry" />
        </mxCell>
        <mxCell id="xXVBoHOG3CjWOZ_luBMX-17" style="edgeStyle=orthogonalEdgeStyle;rounded=0;orthogonalLoop=1;jettySize=auto;html=1;entryX=0.25;entryY=1;entryDx=0;entryDy=0;" edge="1" parent="1" source="xXVBoHOG3CjWOZ_luBMX-11" target="xXVBoHOG3CjWOZ_luBMX-1">
          <mxGeometry relative="1" as="geometry" />
        </mxCell>
        <mxCell id="xXVBoHOG3CjWOZ_luBMX-11" value="karma" style="ellipse;whiteSpace=wrap;html=1;align=center;dashed=1;" vertex="1" parent="1">
          <mxGeometry x="30" y="680" width="100" height="40" as="geometry" />
        </mxCell>
        <mxCell id="xXVBoHOG3CjWOZ_luBMX-13" style="edgeStyle=orthogonalEdgeStyle;rounded=0;orthogonalLoop=1;jettySize=auto;html=1;entryX=0.14;entryY=0.025;entryDx=0;entryDy=0;entryPerimeter=0;" edge="1" parent="1" source="xXVBoHOG3CjWOZ_luBMX-3" target="xXVBoHOG3CjWOZ_luBMX-1">
          <mxGeometry relative="1" as="geometry" />
        </mxCell>
        <mxCell id="xXVBoHOG3CjWOZ_luBMX-16" style="edgeStyle=orthogonalEdgeStyle;rounded=0;orthogonalLoop=1;jettySize=auto;html=1;entryX=0.1;entryY=1;entryDx=0;entryDy=0;entryPerimeter=0;" edge="1" parent="1" source="xXVBoHOG3CjWOZ_luBMX-6" target="xXVBoHOG3CjWOZ_luBMX-1">
          <mxGeometry relative="1" as="geometry" />
        </mxCell>
        <mxCell id="xXVBoHOG3CjWOZ_luBMX-18" value="Subreddit" style="whiteSpace=wrap;html=1;align=center;" vertex="1" parent="1">
          <mxGeometry x="160" y="250" width="100" height="40" as="geometry" />
        </mxCell>
        <mxCell id="xXVBoHOG3CjWOZ_luBMX-19" value="name" style="ellipse;whiteSpace=wrap;html=1;align=center;" vertex="1" parent="1">
          <mxGeometry x="30" y="210" width="100" height="40" as="geometry" />
        </mxCell>
        <mxCell id="xXVBoHOG3CjWOZ_luBMX-30" value="" style="edgeStyle=orthogonalEdgeStyle;rounded=0;orthogonalLoop=1;jettySize=auto;html=1;" edge="1" parent="1" source="xXVBoHOG3CjWOZ_luBMX-20" target="xXVBoHOG3CjWOZ_luBMX-18">
          <mxGeometry relative="1" as="geometry" />
        </mxCell>
        <mxCell id="xXVBoHOG3CjWOZ_luBMX-20" value="description" style="ellipse;whiteSpace=wrap;html=1;align=center;" vertex="1" parent="1">
          <mxGeometry x="30" y="250" width="100" height="40" as="geometry" />
        </mxCell>
        <mxCell id="xXVBoHOG3CjWOZ_luBMX-22" value="is_private" style="ellipse;whiteSpace=wrap;html=1;align=center;" vertex="1" parent="1">
          <mxGeometry x="30" y="290" width="100" height="40" as="geometry" />
        </mxCell>
        <mxCell id="xXVBoHOG3CjWOZ_luBMX-28" style="edgeStyle=orthogonalEdgeStyle;rounded=0;orthogonalLoop=1;jettySize=auto;html=1;" edge="1" parent="1" source="xXVBoHOG3CjWOZ_luBMX-24">
          <mxGeometry relative="1" as="geometry">
            <mxPoint x="190" y="240" as="targetPoint" />
          </mxGeometry>
        </mxCell>
        <mxCell id="xXVBoHOG3CjWOZ_luBMX-24" value="subreddit_id" style="ellipse;whiteSpace=wrap;html=1;align=center;fontStyle=4;" vertex="1" parent="1">
          <mxGeometry x="30" y="170" width="100" height="40" as="geometry" />
        </mxCell>
        <mxCell id="xXVBoHOG3CjWOZ_luBMX-25" value="subscribers_count" style="ellipse;whiteSpace=wrap;html=1;align=center;dashed=1;" vertex="1" parent="1">
          <mxGeometry x="30" y="330" width="100" height="40" as="geometry" />
        </mxCell>
        <mxCell id="xXVBoHOG3CjWOZ_luBMX-29" style="edgeStyle=orthogonalEdgeStyle;rounded=0;orthogonalLoop=1;jettySize=auto;html=1;entryX=0.137;entryY=0.025;entryDx=0;entryDy=0;entryPerimeter=0;" edge="1" parent="1" source="xXVBoHOG3CjWOZ_luBMX-19" target="xXVBoHOG3CjWOZ_luBMX-18">
          <mxGeometry relative="1" as="geometry" />
        </mxCell>
        <mxCell id="xXVBoHOG3CjWOZ_luBMX-31" style="edgeStyle=orthogonalEdgeStyle;rounded=0;orthogonalLoop=1;jettySize=auto;html=1;entryX=0.187;entryY=1.004;entryDx=0;entryDy=0;entryPerimeter=0;" edge="1" parent="1" source="xXVBoHOG3CjWOZ_luBMX-22" target="xXVBoHOG3CjWOZ_luBMX-18">
          <mxGeometry relative="1" as="geometry" />
        </mxCell>
        <mxCell id="xXVBoHOG3CjWOZ_luBMX-32" style="edgeStyle=orthogonalEdgeStyle;rounded=0;orthogonalLoop=1;jettySize=auto;html=1;entryX=0.32;entryY=1.004;entryDx=0;entryDy=0;entryPerimeter=0;" edge="1" parent="1" source="xXVBoHOG3CjWOZ_luBMX-25" target="xXVBoHOG3CjWOZ_luBMX-18">
          <mxGeometry relative="1" as="geometry" />
        </mxCell>
        <mxCell id="xXVBoHOG3CjWOZ_luBMX-77" style="edgeStyle=orthogonalEdgeStyle;rounded=0;orthogonalLoop=1;jettySize=auto;html=1;entryX=1;entryY=0.5;entryDx=0;entryDy=0;" edge="1" parent="1" source="xXVBoHOG3CjWOZ_luBMX-33" target="xXVBoHOG3CjWOZ_luBMX-76">
          <mxGeometry relative="1" as="geometry" />
        </mxCell>
        <mxCell id="xXVBoHOG3CjWOZ_luBMX-81" style="edgeStyle=orthogonalEdgeStyle;rounded=0;orthogonalLoop=1;jettySize=auto;html=1;entryX=1;entryY=0.5;entryDx=0;entryDy=0;" edge="1" parent="1" source="xXVBoHOG3CjWOZ_luBMX-33" target="xXVBoHOG3CjWOZ_luBMX-79">
          <mxGeometry relative="1" as="geometry" />
        </mxCell>
        <mxCell id="xXVBoHOG3CjWOZ_luBMX-100" style="edgeStyle=orthogonalEdgeStyle;rounded=0;orthogonalLoop=1;jettySize=auto;html=1;entryX=0.5;entryY=0;entryDx=0;entryDy=0;" edge="1" parent="1" source="xXVBoHOG3CjWOZ_luBMX-33" target="xXVBoHOG3CjWOZ_luBMX-99">
          <mxGeometry relative="1" as="geometry" />
        </mxCell>
        <mxCell id="xXVBoHOG3CjWOZ_luBMX-33" value="Post" style="whiteSpace=wrap;html=1;align=center;" vertex="1" parent="1">
          <mxGeometry x="630" y="290" width="100" height="40" as="geometry" />
        </mxCell>
        <mxCell id="xXVBoHOG3CjWOZ_luBMX-34" value="post_id" style="ellipse;whiteSpace=wrap;html=1;align=center;fontStyle=4;" vertex="1" parent="1">
          <mxGeometry x="760" y="190" width="100" height="40" as="geometry" />
        </mxCell>
        <mxCell id="xXVBoHOG3CjWOZ_luBMX-35" value="score" style="ellipse;whiteSpace=wrap;html=1;align=center;dashed=1;" vertex="1" parent="1">
          <mxGeometry x="760" y="390" width="100" height="40" as="geometry" />
        </mxCell>
        <mxCell id="xXVBoHOG3CjWOZ_luBMX-36" value="title" style="ellipse;whiteSpace=wrap;html=1;align=center;" vertex="1" parent="1">
          <mxGeometry x="760" y="230" width="100" height="40" as="geometry" />
        </mxCell>
        <mxCell id="xXVBoHOG3CjWOZ_luBMX-43" style="edgeStyle=orthogonalEdgeStyle;rounded=0;orthogonalLoop=1;jettySize=auto;html=1;entryX=1;entryY=0.75;entryDx=0;entryDy=0;" edge="1" parent="1" source="xXVBoHOG3CjWOZ_luBMX-37" target="xXVBoHOG3CjWOZ_luBMX-33">
          <mxGeometry relative="1" as="geometry" />
        </mxCell>
        <mxCell id="xXVBoHOG3CjWOZ_luBMX-37" value="created_at" style="ellipse;whiteSpace=wrap;html=1;align=center;" vertex="1" parent="1">
          <mxGeometry x="760" y="310" width="100" height="40" as="geometry" />
        </mxCell>
        <mxCell id="xXVBoHOG3CjWOZ_luBMX-42" style="edgeStyle=orthogonalEdgeStyle;rounded=0;orthogonalLoop=1;jettySize=auto;html=1;entryX=1;entryY=0;entryDx=0;entryDy=0;" edge="1" parent="1" source="xXVBoHOG3CjWOZ_luBMX-38" target="xXVBoHOG3CjWOZ_luBMX-33">
          <mxGeometry relative="1" as="geometry" />
        </mxCell>
        <mxCell id="xXVBoHOG3CjWOZ_luBMX-38" value="content" style="ellipse;whiteSpace=wrap;html=1;align=center;" vertex="1" parent="1">
          <mxGeometry x="760" y="270" width="100" height="40" as="geometry" />
        </mxCell>
        <mxCell id="xXVBoHOG3CjWOZ_luBMX-44" style="edgeStyle=orthogonalEdgeStyle;rounded=0;orthogonalLoop=1;jettySize=auto;html=1;entryX=0.845;entryY=0.942;entryDx=0;entryDy=0;entryPerimeter=0;" edge="1" parent="1" source="xXVBoHOG3CjWOZ_luBMX-39" target="xXVBoHOG3CjWOZ_luBMX-33">
          <mxGeometry relative="1" as="geometry">
            <mxPoint x="710" y="340" as="targetPoint" />
          </mxGeometry>
        </mxCell>
        <mxCell id="xXVBoHOG3CjWOZ_luBMX-39" value="type" style="ellipse;whiteSpace=wrap;html=1;align=center;" vertex="1" parent="1">
          <mxGeometry x="760" y="350" width="100" height="40" as="geometry" />
        </mxCell>
        <mxCell id="xXVBoHOG3CjWOZ_luBMX-40" style="edgeStyle=orthogonalEdgeStyle;rounded=0;orthogonalLoop=1;jettySize=auto;html=1;entryX=0.67;entryY=0.004;entryDx=0;entryDy=0;entryPerimeter=0;" edge="1" parent="1" source="xXVBoHOG3CjWOZ_luBMX-34" target="xXVBoHOG3CjWOZ_luBMX-33">
          <mxGeometry relative="1" as="geometry" />
        </mxCell>
        <mxCell id="xXVBoHOG3CjWOZ_luBMX-41" style="edgeStyle=orthogonalEdgeStyle;rounded=0;orthogonalLoop=1;jettySize=auto;html=1;entryX=0.837;entryY=-0.058;entryDx=0;entryDy=0;entryPerimeter=0;" edge="1" parent="1" source="xXVBoHOG3CjWOZ_luBMX-36" target="xXVBoHOG3CjWOZ_luBMX-33">
          <mxGeometry relative="1" as="geometry" />
        </mxCell>
        <mxCell id="xXVBoHOG3CjWOZ_luBMX-45" style="edgeStyle=orthogonalEdgeStyle;rounded=0;orthogonalLoop=1;jettySize=auto;html=1;entryX=0.67;entryY=1.046;entryDx=0;entryDy=0;entryPerimeter=0;" edge="1" parent="1" source="xXVBoHOG3CjWOZ_luBMX-35" target="xXVBoHOG3CjWOZ_luBMX-33">
          <mxGeometry relative="1" as="geometry" />
        </mxCell>
        <mxCell id="xXVBoHOG3CjWOZ_luBMX-46" value="Flair" style="whiteSpace=wrap;html=1;align=center;" vertex="1" parent="1">
          <mxGeometry x="630" y="510" width="100" height="40" as="geometry" />
        </mxCell>
        <mxCell id="xXVBoHOG3CjWOZ_luBMX-50" style="edgeStyle=orthogonalEdgeStyle;rounded=0;orthogonalLoop=1;jettySize=auto;html=1;entryX=0.75;entryY=0;entryDx=0;entryDy=0;" edge="1" parent="1" source="xXVBoHOG3CjWOZ_luBMX-47" target="xXVBoHOG3CjWOZ_luBMX-46">
          <mxGeometry relative="1" as="geometry" />
        </mxCell>
        <mxCell id="xXVBoHOG3CjWOZ_luBMX-47" value="flair_id" style="ellipse;whiteSpace=wrap;html=1;align=center;fontStyle=4;" vertex="1" parent="1">
          <mxGeometry x="760" y="470" width="100" height="40" as="geometry" />
        </mxCell>
        <mxCell id="xXVBoHOG3CjWOZ_luBMX-51" value="" style="edgeStyle=orthogonalEdgeStyle;rounded=0;orthogonalLoop=1;jettySize=auto;html=1;" edge="1" parent="1" source="xXVBoHOG3CjWOZ_luBMX-48" target="xXVBoHOG3CjWOZ_luBMX-46">
          <mxGeometry relative="1" as="geometry" />
        </mxCell>
        <mxCell id="xXVBoHOG3CjWOZ_luBMX-48" value="text" style="ellipse;whiteSpace=wrap;html=1;align=center;" vertex="1" parent="1">
          <mxGeometry x="760" y="510" width="100" height="40" as="geometry" />
        </mxCell>
        <mxCell id="xXVBoHOG3CjWOZ_luBMX-52" style="edgeStyle=orthogonalEdgeStyle;rounded=0;orthogonalLoop=1;jettySize=auto;html=1;entryX=0.75;entryY=1;entryDx=0;entryDy=0;" edge="1" parent="1" source="xXVBoHOG3CjWOZ_luBMX-49" target="xXVBoHOG3CjWOZ_luBMX-46">
          <mxGeometry relative="1" as="geometry" />
        </mxCell>
        <mxCell id="xXVBoHOG3CjWOZ_luBMX-49" value="color" style="ellipse;whiteSpace=wrap;html=1;align=center;" vertex="1" parent="1">
          <mxGeometry x="760" y="550" width="100" height="40" as="geometry" />
        </mxCell>
        <mxCell id="xXVBoHOG3CjWOZ_luBMX-53" value="Comment" style="shape=ext;margin=3;double=1;whiteSpace=wrap;html=1;align=center;" vertex="1" parent="1">
          <mxGeometry x="490" y="70" width="100" height="40" as="geometry" />
        </mxCell>
        <mxCell id="xXVBoHOG3CjWOZ_luBMX-59" style="edgeStyle=orthogonalEdgeStyle;rounded=0;orthogonalLoop=1;jettySize=auto;html=1;entryX=0;entryY=0.75;entryDx=0;entryDy=0;" edge="1" parent="1" source="xXVBoHOG3CjWOZ_luBMX-54" target="xXVBoHOG3CjWOZ_luBMX-53">
          <mxGeometry relative="1" as="geometry">
            <mxPoint x="330" y="100" as="targetPoint" />
            <Array as="points">
              <mxPoint x="330" y="100" />
            </Array>
          </mxGeometry>
        </mxCell>
        <mxCell id="xXVBoHOG3CjWOZ_luBMX-54" value="comment_seq (partial)" style="ellipse;whiteSpace=wrap;html=1;align=center;fontStyle=4;" vertex="1" parent="1">
          <mxGeometry x="280" y="10" width="100" height="40" as="geometry" />
        </mxCell>
        <mxCell id="xXVBoHOG3CjWOZ_luBMX-60" style="edgeStyle=orthogonalEdgeStyle;rounded=0;orthogonalLoop=1;jettySize=auto;html=1;entryX=0;entryY=0.5;entryDx=0;entryDy=0;" edge="1" parent="1" source="xXVBoHOG3CjWOZ_luBMX-55" target="xXVBoHOG3CjWOZ_luBMX-53">
          <mxGeometry relative="1" as="geometry">
            <mxPoint x="430" y="90" as="targetPoint" />
            <Array as="points">
              <mxPoint x="430" y="90" />
            </Array>
          </mxGeometry>
        </mxCell>
        <mxCell id="xXVBoHOG3CjWOZ_luBMX-55" value="created_at" style="ellipse;whiteSpace=wrap;html=1;align=center;" vertex="1" parent="1">
          <mxGeometry x="380" y="10" width="100" height="40" as="geometry" />
        </mxCell>
        <mxCell id="xXVBoHOG3CjWOZ_luBMX-61" value="" style="edgeStyle=orthogonalEdgeStyle;rounded=0;orthogonalLoop=1;jettySize=auto;html=1;" edge="1" parent="1" source="xXVBoHOG3CjWOZ_luBMX-56" target="xXVBoHOG3CjWOZ_luBMX-53">
          <mxGeometry relative="1" as="geometry" />
        </mxCell>
        <mxCell id="xXVBoHOG3CjWOZ_luBMX-56" value="content" style="ellipse;whiteSpace=wrap;html=1;align=center;" vertex="1" parent="1">
          <mxGeometry x="480" y="10" width="100" height="40" as="geometry" />
        </mxCell>
        <mxCell id="xXVBoHOG3CjWOZ_luBMX-62" style="edgeStyle=orthogonalEdgeStyle;rounded=0;orthogonalLoop=1;jettySize=auto;html=1;entryX=1;entryY=0.25;entryDx=0;entryDy=0;" edge="1" parent="1" source="xXVBoHOG3CjWOZ_luBMX-57" target="xXVBoHOG3CjWOZ_luBMX-53">
          <mxGeometry relative="1" as="geometry" />
        </mxCell>
        <mxCell id="xXVBoHOG3CjWOZ_luBMX-57" value="score" style="ellipse;whiteSpace=wrap;html=1;align=center;dashed=1;" vertex="1" parent="1">
          <mxGeometry x="580" y="10" width="100" height="40" as="geometry" />
        </mxCell>
        <mxCell id="xXVBoHOG3CjWOZ_luBMX-63" style="edgeStyle=orthogonalEdgeStyle;rounded=0;orthogonalLoop=1;jettySize=auto;html=1;entryX=1;entryY=0.75;entryDx=0;entryDy=0;" edge="1" parent="1" source="xXVBoHOG3CjWOZ_luBMX-58" target="xXVBoHOG3CjWOZ_luBMX-53">
          <mxGeometry relative="1" as="geometry">
            <mxPoint x="730" y="100" as="targetPoint" />
            <Array as="points">
              <mxPoint x="730" y="100" />
            </Array>
          </mxGeometry>
        </mxCell>
        <mxCell id="xXVBoHOG3CjWOZ_luBMX-58" value="depth" style="ellipse;whiteSpace=wrap;html=1;align=center;dashed=1;" vertex="1" parent="1">
          <mxGeometry x="680" y="10" width="100" height="40" as="geometry" />
        </mxCell>
        <mxCell id="xXVBoHOG3CjWOZ_luBMX-102" value="" style="edgeStyle=orthogonalEdgeStyle;rounded=0;orthogonalLoop=1;jettySize=auto;html=1;" edge="1" parent="1" source="xXVBoHOG3CjWOZ_luBMX-65" target="xXVBoHOG3CjWOZ_luBMX-86">
          <mxGeometry relative="1" as="geometry" />
        </mxCell>
        <mxCell id="xXVBoHOG3CjWOZ_luBMX-65" value="since" style="ellipse;whiteSpace=wrap;html=1;align=center;" vertex="1" parent="1">
          <mxGeometry x="-70" y="400" width="100" height="40" as="geometry" />
        </mxCell>
        <mxCell id="xXVBoHOG3CjWOZ_luBMX-104" value="" style="edgeStyle=orthogonalEdgeStyle;rounded=0;orthogonalLoop=1;jettySize=auto;html=1;" edge="1" parent="1" source="xXVBoHOG3CjWOZ_luBMX-69" target="xXVBoHOG3CjWOZ_luBMX-95">
          <mxGeometry relative="1" as="geometry" />
        </mxCell>
        <mxCell id="xXVBoHOG3CjWOZ_luBMX-69" value="vote_value" style="ellipse;whiteSpace=wrap;html=1;align=center;" vertex="1" parent="1">
          <mxGeometry x="330" y="740" width="100" height="40" as="geometry" />
        </mxCell>
        <mxCell id="xXVBoHOG3CjWOZ_luBMX-103" style="edgeStyle=orthogonalEdgeStyle;rounded=0;orthogonalLoop=1;jettySize=auto;html=1;" edge="1" parent="1" source="xXVBoHOG3CjWOZ_luBMX-70" target="xXVBoHOG3CjWOZ_luBMX-92">
          <mxGeometry relative="1" as="geometry">
            <mxPoint x="400" y="570" as="targetPoint" />
            <Array as="points">
              <mxPoint x="380" y="570" />
            </Array>
          </mxGeometry>
        </mxCell>
        <mxCell id="xXVBoHOG3CjWOZ_luBMX-70" value="vote_value" style="ellipse;whiteSpace=wrap;html=1;align=center;" vertex="1" parent="1">
          <mxGeometry x="425" y="550" width="100" height="40" as="geometry" />
        </mxCell>
        <mxCell id="xXVBoHOG3CjWOZ_luBMX-75" style="edgeStyle=orthogonalEdgeStyle;rounded=0;orthogonalLoop=1;jettySize=auto;html=1;entryX=0;entryY=0.25;entryDx=0;entryDy=0;" edge="1" parent="1" source="xXVBoHOG3CjWOZ_luBMX-73" target="xXVBoHOG3CjWOZ_luBMX-33">
          <mxGeometry relative="1" as="geometry" />
        </mxCell>
        <mxCell id="xXVBoHOG3CjWOZ_luBMX-73" value="creates" style="shape=rhombus;perimeter=rhombusPerimeter;whiteSpace=wrap;html=1;align=center;" vertex="1" parent="1">
          <mxGeometry x="270" y="510" width="120" height="60" as="geometry" />
        </mxCell>
        <mxCell id="xXVBoHOG3CjWOZ_luBMX-78" style="edgeStyle=orthogonalEdgeStyle;rounded=0;orthogonalLoop=1;jettySize=auto;html=1;entryX=1;entryY=0.5;entryDx=0;entryDy=0;" edge="1" parent="1" source="xXVBoHOG3CjWOZ_luBMX-76" target="xXVBoHOG3CjWOZ_luBMX-18">
          <mxGeometry relative="1" as="geometry" />
        </mxCell>
        <mxCell id="xXVBoHOG3CjWOZ_luBMX-76" value="Belongs to" style="shape=rhombus;perimeter=rhombusPerimeter;whiteSpace=wrap;html=1;align=center;" vertex="1" parent="1">
          <mxGeometry x="330" y="240" width="120" height="60" as="geometry" />
        </mxCell>
        <mxCell id="xXVBoHOG3CjWOZ_luBMX-82" style="edgeStyle=orthogonalEdgeStyle;rounded=0;orthogonalLoop=1;jettySize=auto;html=1;entryX=0.5;entryY=1;entryDx=0;entryDy=0;" edge="1" parent="1" source="xXVBoHOG3CjWOZ_luBMX-79" target="xXVBoHOG3CjWOZ_luBMX-53">
          <mxGeometry relative="1" as="geometry" />
        </mxCell>
        <mxCell id="xXVBoHOG3CjWOZ_luBMX-79" value="has_comment" style="shape=rhombus;double=1;perimeter=rhombusPerimeter;whiteSpace=wrap;html=1;align=center;" vertex="1" parent="1">
          <mxGeometry x="480" y="180" width="120" height="60" as="geometry" />
        </mxCell>
        <mxCell id="xXVBoHOG3CjWOZ_luBMX-85" style="edgeStyle=orthogonalEdgeStyle;rounded=0;orthogonalLoop=1;jettySize=auto;html=1;entryX=0.25;entryY=1;entryDx=0;entryDy=0;" edge="1" parent="1" source="xXVBoHOG3CjWOZ_luBMX-83" target="xXVBoHOG3CjWOZ_luBMX-53">
          <mxGeometry relative="1" as="geometry">
            <mxPoint x="510" y="150" as="targetPoint" />
            <Array as="points">
              <mxPoint x="290" y="346" />
              <mxPoint x="300" y="346" />
              <mxPoint x="300" y="150" />
              <mxPoint x="515" y="150" />
            </Array>
          </mxGeometry>
        </mxCell>
        <mxCell id="xXVBoHOG3CjWOZ_luBMX-87" value="" style="edgeStyle=orthogonalEdgeStyle;rounded=0;orthogonalLoop=1;jettySize=auto;html=1;" edge="1" parent="1" source="xXVBoHOG3CjWOZ_luBMX-83" target="xXVBoHOG3CjWOZ_luBMX-18">
          <mxGeometry relative="1" as="geometry" />
        </mxCell>
        <mxCell id="xXVBoHOG3CjWOZ_luBMX-83" value="writes" style="shape=rhombus;perimeter=rhombusPerimeter;whiteSpace=wrap;html=1;align=center;" vertex="1" parent="1">
          <mxGeometry x="190" y="400" width="120" height="60" as="geometry" />
        </mxCell>
        <mxCell id="xXVBoHOG3CjWOZ_luBMX-90" style="edgeStyle=orthogonalEdgeStyle;rounded=0;orthogonalLoop=1;jettySize=auto;html=1;entryX=0.403;entryY=1.025;entryDx=0;entryDy=0;entryPerimeter=0;" edge="1" parent="1" source="xXVBoHOG3CjWOZ_luBMX-86" target="xXVBoHOG3CjWOZ_luBMX-18">
          <mxGeometry relative="1" as="geometry">
            <mxPoint x="200" y="300" as="targetPoint" />
            <Array as="points">
              <mxPoint x="200" y="420" />
            </Array>
          </mxGeometry>
        </mxCell>
        <mxCell id="xXVBoHOG3CjWOZ_luBMX-86" value="subscribes" style="shape=rhombus;perimeter=rhombusPerimeter;whiteSpace=wrap;html=1;align=center;" vertex="1" parent="1">
          <mxGeometry x="60" y="390" width="120" height="60" as="geometry" />
        </mxCell>
        <mxCell id="xXVBoHOG3CjWOZ_luBMX-89" style="edgeStyle=orthogonalEdgeStyle;rounded=0;orthogonalLoop=1;jettySize=auto;html=1;entryX=1;entryY=1;entryDx=0;entryDy=0;" edge="1" parent="1" source="xXVBoHOG3CjWOZ_luBMX-1" target="xXVBoHOG3CjWOZ_luBMX-86">
          <mxGeometry relative="1" as="geometry">
            <mxPoint x="210" y="460" as="targetPoint" />
            <Array as="points">
              <mxPoint x="220" y="470" />
              <mxPoint x="150" y="470" />
            </Array>
          </mxGeometry>
        </mxCell>
        <mxCell id="xXVBoHOG3CjWOZ_luBMX-94" style="edgeStyle=orthogonalEdgeStyle;rounded=0;orthogonalLoop=1;jettySize=auto;html=1;entryX=0;entryY=1;entryDx=0;entryDy=0;" edge="1" parent="1" source="xXVBoHOG3CjWOZ_luBMX-92" target="xXVBoHOG3CjWOZ_luBMX-33">
          <mxGeometry relative="1" as="geometry">
            <mxPoint x="540" y="330" as="targetPoint" />
            <Array as="points">
              <mxPoint x="540" y="620" />
              <mxPoint x="540" y="330" />
            </Array>
          </mxGeometry>
        </mxCell>
        <mxCell id="xXVBoHOG3CjWOZ_luBMX-92" value="votes_on_post" style="shape=rhombus;perimeter=rhombusPerimeter;whiteSpace=wrap;html=1;align=center;" vertex="1" parent="1">
          <mxGeometry x="320" y="590" width="120" height="60" as="geometry" />
        </mxCell>
        <mxCell id="xXVBoHOG3CjWOZ_luBMX-97" style="edgeStyle=orthogonalEdgeStyle;rounded=0;orthogonalLoop=1;jettySize=auto;html=1;entryX=0.75;entryY=1;entryDx=0;entryDy=0;" edge="1" parent="1" target="xXVBoHOG3CjWOZ_luBMX-53">
          <mxGeometry relative="1" as="geometry">
            <mxPoint x="570" y="140" as="targetPoint" />
            <mxPoint x="460" y="690" as="sourcePoint" />
            <Array as="points">
              <mxPoint x="900" y="690" />
              <mxPoint x="900" y="140" />
              <mxPoint x="565" y="140" />
            </Array>
          </mxGeometry>
        </mxCell>
        <mxCell id="xXVBoHOG3CjWOZ_luBMX-105" style="edgeStyle=orthogonalEdgeStyle;rounded=0;orthogonalLoop=1;jettySize=auto;html=1;exitX=1;exitY=0.5;exitDx=0;exitDy=0;" edge="1" parent="1" source="xXVBoHOG3CjWOZ_luBMX-95">
          <mxGeometry relative="1" as="geometry">
            <mxPoint x="460" y="690.1666666666667" as="targetPoint" />
          </mxGeometry>
        </mxCell>
        <mxCell id="xXVBoHOG3CjWOZ_luBMX-95" value="votes_on_comment" style="shape=rhombus;perimeter=rhombusPerimeter;whiteSpace=wrap;html=1;align=center;" vertex="1" parent="1">
          <mxGeometry x="320" y="660" width="120" height="60" as="geometry" />
        </mxCell>
        <mxCell id="xXVBoHOG3CjWOZ_luBMX-101" style="edgeStyle=orthogonalEdgeStyle;rounded=0;orthogonalLoop=1;jettySize=auto;html=1;entryX=0;entryY=0.5;entryDx=0;entryDy=0;" edge="1" parent="1" source="xXVBoHOG3CjWOZ_luBMX-99" target="xXVBoHOG3CjWOZ_luBMX-46">
          <mxGeometry relative="1" as="geometry">
            <mxPoint x="620" y="530" as="targetPoint" />
            <Array as="points">
              <mxPoint x="620" y="530" />
            </Array>
          </mxGeometry>
        </mxCell>
        <mxCell id="xXVBoHOG3CjWOZ_luBMX-99" value="has_flair" style="shape=rhombus;perimeter=rhombusPerimeter;whiteSpace=wrap;html=1;align=center;" vertex="1" parent="1">
          <mxGeometry x="560" y="390" width="120" height="60" as="geometry" />
        </mxCell>
      </root>
    </mxGraphModel>
  </diagram>
  <diagram name="Логически модел" id="FNjOBWp-079ey2nxJsIl">
    <mxGraphModel dx="3412" dy="1143" grid="1" gridSize="10" guides="1" tooltips="1" connect="1" arrows="1" fold="1" page="1" pageScale="1" pageWidth="850" pageHeight="1100" math="0" shadow="0">
      <root>
        <mxCell id="0" />
        <mxCell id="1" parent="0" />
        <mxCell id="FxmKq2kwdO-IWyrq16No-47" value="&lt;font style=&quot;font-size: 14px;&quot;&gt;&lt;b&gt;Потребител&lt;/b&gt;&lt;/font&gt;" style="rounded=1;whiteSpace=wrap;html=1;fillColor=#dae8fc;labelPosition=center;verticalLabelPosition=top;align=center;verticalAlign=bottom;" vertex="1" parent="1">
          <mxGeometry x="190" y="130" width="170" height="160" as="geometry" />
        </mxCell>
        <mxCell id="FxmKq2kwdO-IWyrq16No-48" value="&lt;u&gt;UserID&lt;/u&gt;" style="text;html=1;strokeColor=none;fillColor=none;align=left;verticalAlign=top;whiteSpace=wrap;rounded=0;" vertex="1" parent="FxmKq2kwdO-IWyrq16No-47">
          <mxGeometry x="10" y="8.888888888888888" width="140" height="17.777777777777775" as="geometry" />
        </mxCell>
        <mxCell id="FxmKq2kwdO-IWyrq16No-49" value="Име" style="text;html=1;strokeColor=none;fillColor=none;align=left;verticalAlign=top;whiteSpace=wrap;rounded=0;" vertex="1" parent="FxmKq2kwdO-IWyrq16No-47">
          <mxGeometry x="10" y="30.490000000000002" width="140" height="23.33" as="geometry" />
        </mxCell>
        <mxCell id="FxmKq2kwdO-IWyrq16No-50" value="Имейл" style="text;html=1;strokeColor=none;fillColor=none;align=left;verticalAlign=top;whiteSpace=wrap;rounded=0;" vertex="1" parent="FxmKq2kwdO-IWyrq16No-47">
          <mxGeometry x="10" y="102.07" width="140" height="27.93" as="geometry" />
        </mxCell>
        <mxCell id="FxmKq2kwdO-IWyrq16No-51" value="Телефон" style="text;html=1;strokeColor=none;fillColor=none;align=left;verticalAlign=top;whiteSpace=wrap;rounded=0;" vertex="1" parent="FxmKq2kwdO-IWyrq16No-47">
          <mxGeometry x="10" y="130" width="140" height="24.28" as="geometry" />
        </mxCell>
        <mxCell id="FxmKq2kwdO-IWyrq16No-52" value="Фамилия" style="text;html=1;align=left;verticalAlign=middle;whiteSpace=wrap;rounded=0;labelPosition=center;verticalLabelPosition=middle;" vertex="1" parent="FxmKq2kwdO-IWyrq16No-47">
          <mxGeometry x="10" y="53.815714285714286" width="160" height="24.125714285714285" as="geometry" />
        </mxCell>
        <mxCell id="xsSogKUQ-iAwHHJJICw--47" value="ЕГН" style="text;html=1;align=left;verticalAlign=middle;whiteSpace=wrap;rounded=0;labelPosition=center;verticalLabelPosition=middle;" vertex="1" parent="FxmKq2kwdO-IWyrq16No-47">
          <mxGeometry x="10" y="77.94142857142856" width="160" height="24.125714285714285" as="geometry" />
        </mxCell>
        <mxCell id="0tdC7_IZy3TEFIUBJlUo-47" style="edgeStyle=orthogonalEdgeStyle;rounded=0;orthogonalLoop=1;jettySize=auto;html=1;exitX=0.5;exitY=1;exitDx=0;exitDy=0;" edge="1" parent="FxmKq2kwdO-IWyrq16No-47" source="FxmKq2kwdO-IWyrq16No-50" target="FxmKq2kwdO-IWyrq16No-50">
          <mxGeometry relative="1" as="geometry" />
        </mxCell>
        <mxCell id="FxmKq2kwdO-IWyrq16No-53" value="&lt;font style=&quot;font-size: 14px;&quot;&gt;&lt;b&gt;Автокъща&lt;/b&gt;&lt;/font&gt;" style="rounded=1;whiteSpace=wrap;html=1;fillColor=#dae8fc;labelPosition=center;verticalLabelPosition=top;align=center;verticalAlign=bottom;" vertex="1" parent="1">
          <mxGeometry y="530" width="160" height="140" as="geometry" />
        </mxCell>
        <mxCell id="FxmKq2kwdO-IWyrq16No-54" value="&lt;u&gt;DealerID&lt;/u&gt;" style="text;html=1;strokeColor=none;fillColor=none;align=left;verticalAlign=top;whiteSpace=wrap;rounded=0;" vertex="1" parent="FxmKq2kwdO-IWyrq16No-53">
          <mxGeometry x="10" y="10" width="140" height="20" as="geometry" />
        </mxCell>
        <mxCell id="FxmKq2kwdO-IWyrq16No-55" value="Име" style="text;html=1;strokeColor=none;fillColor=none;align=left;verticalAlign=top;whiteSpace=wrap;rounded=0;" vertex="1" parent="FxmKq2kwdO-IWyrq16No-53">
          <mxGeometry x="10" y="40" width="140" height="20" as="geometry" />
        </mxCell>
        <mxCell id="FxmKq2kwdO-IWyrq16No-56" value="Адрес" style="text;html=1;strokeColor=none;fillColor=none;align=left;verticalAlign=top;whiteSpace=wrap;rounded=0;" vertex="1" parent="FxmKq2kwdO-IWyrq16No-53">
          <mxGeometry x="10" y="69" width="140" height="20" as="geometry" />
        </mxCell>
        <mxCell id="FxmKq2kwdO-IWyrq16No-57" value="Телефон" style="text;html=1;strokeColor=none;fillColor=none;align=left;verticalAlign=top;whiteSpace=wrap;rounded=0;" vertex="1" parent="FxmKq2kwdO-IWyrq16No-53">
          <mxGeometry x="10" y="97" width="140" height="20" as="geometry" />
        </mxCell>
        <mxCell id="FxmKq2kwdO-IWyrq16No-58" value="&lt;font style=&quot;font-size: 14px;&quot;&gt;&lt;b&gt;Автомобил&lt;/b&gt;&lt;/font&gt;" style="rounded=1;whiteSpace=wrap;html=1;fillColor=#dae8fc;labelPosition=center;verticalLabelPosition=top;align=center;verticalAlign=bottom;" vertex="1" parent="1">
          <mxGeometry x="480" y="125" width="160" height="210" as="geometry" />
        </mxCell>
        <mxCell id="FxmKq2kwdO-IWyrq16No-59" value="&lt;u&gt;CarID&lt;/u&gt;" style="text;html=1;strokeColor=none;fillColor=none;align=left;verticalAlign=top;whiteSpace=wrap;rounded=0;" vertex="1" parent="FxmKq2kwdO-IWyrq16No-58">
          <mxGeometry x="10" y="10.00105263157895" width="140" height="30.000000000000007" as="geometry" />
        </mxCell>
        <mxCell id="FxmKq2kwdO-IWyrq16No-60" value="Марка" style="text;html=1;strokeColor=none;fillColor=none;align=left;verticalAlign=top;whiteSpace=wrap;rounded=0;" vertex="1" parent="FxmKq2kwdO-IWyrq16No-58">
          <mxGeometry x="10" y="33.15" width="140" height="17.64" as="geometry" />
        </mxCell>
        <mxCell id="FxmKq2kwdO-IWyrq16No-61" value="Модел" style="text;html=1;strokeColor=none;fillColor=none;align=left;verticalAlign=top;whiteSpace=wrap;rounded=0;" vertex="1" parent="FxmKq2kwdO-IWyrq16No-58">
          <mxGeometry x="10" y="60" width="140" height="27.63" as="geometry" />
        </mxCell>
        <mxCell id="FxmKq2kwdO-IWyrq16No-62" value="Година" style="text;html=1;strokeColor=none;fillColor=none;align=left;verticalAlign=top;whiteSpace=wrap;rounded=0;" vertex="1" parent="FxmKq2kwdO-IWyrq16No-58">
          <mxGeometry x="10" y="82.37" width="140" height="32.63" as="geometry" />
        </mxCell>
        <mxCell id="FxmKq2kwdO-IWyrq16No-65" value="Конски сили" style="text;html=1;align=left;verticalAlign=middle;whiteSpace=wrap;rounded=0;labelPosition=center;verticalLabelPosition=middle;" vertex="1" parent="FxmKq2kwdO-IWyrq16No-58">
          <mxGeometry x="10" y="129.99578947368423" width="140" height="25.266315789473687" as="geometry" />
        </mxCell>
        <mxCell id="FxmKq2kwdO-IWyrq16No-66" value="Пробег" style="text;html=1;align=left;verticalAlign=middle;whiteSpace=wrap;rounded=0;" vertex="1" parent="FxmKq2kwdO-IWyrq16No-58">
          <mxGeometry x="10" y="155.26210526315793" width="140" height="22.10526315789474" as="geometry" />
        </mxCell>
        <mxCell id="EckrEsCNv18yC2XtDbxX-47" value="ВИН номер" style="text;html=1;strokeColor=none;fillColor=none;align=left;verticalAlign=top;whiteSpace=wrap;rounded=0;" vertex="1" parent="FxmKq2kwdO-IWyrq16No-58">
          <mxGeometry x="10" y="106.37" width="140" height="23.63" as="geometry" />
        </mxCell>
        <mxCell id="FxmKq2kwdO-IWyrq16No-67" value="&lt;font style=&quot;font-size: 14px;&quot;&gt;&lt;b&gt;Обява&lt;/b&gt;&lt;/font&gt;" style="rounded=1;whiteSpace=wrap;html=1;fillColor=#f8cecc;labelPosition=center;verticalLabelPosition=top;align=center;verticalAlign=bottom;" vertex="1" parent="1">
          <mxGeometry x="210" y="390" width="160" height="130" as="geometry" />
        </mxCell>
        <mxCell id="FxmKq2kwdO-IWyrq16No-68" value="&lt;u&gt;AdID&lt;/u&gt;" style="text;html=1;strokeColor=none;fillColor=none;align=left;verticalAlign=top;whiteSpace=wrap;rounded=0;" vertex="1" parent="FxmKq2kwdO-IWyrq16No-67">
          <mxGeometry x="10" y="15.91" width="140" height="24.09" as="geometry" />
        </mxCell>
        <mxCell id="FxmKq2kwdO-IWyrq16No-73" value="Дата" style="text;html=1;strokeColor=none;fillColor=none;align=left;verticalAlign=top;whiteSpace=wrap;rounded=0;" vertex="1" parent="FxmKq2kwdO-IWyrq16No-67">
          <mxGeometry x="10" y="40" width="140" height="25" as="geometry" />
        </mxCell>
        <mxCell id="FxmKq2kwdO-IWyrq16No-74" value="Цена" style="text;html=1;strokeColor=none;fillColor=none;align=left;verticalAlign=top;whiteSpace=wrap;rounded=0;" vertex="1" parent="FxmKq2kwdO-IWyrq16No-67">
          <mxGeometry x="10" y="65" width="140" height="32.1" as="geometry" />
        </mxCell>
        <mxCell id="FxmKq2kwdO-IWyrq16No-75" value="Описание" style="text;html=1;align=left;verticalAlign=middle;whiteSpace=wrap;rounded=0;" vertex="1" parent="FxmKq2kwdO-IWyrq16No-67">
          <mxGeometry x="10" y="90" width="140" height="30" as="geometry" />
        </mxCell>
        <mxCell id="FxmKq2kwdO-IWyrq16No-76" value="&lt;font style=&quot;font-size: 14px;&quot;&gt;&lt;b&gt;Категория&lt;/b&gt;&lt;/font&gt;" style="rounded=1;whiteSpace=wrap;html=1;fillColor=#ffe6cc;labelPosition=center;verticalLabelPosition=top;align=center;verticalAlign=bottom;" vertex="1" parent="1">
          <mxGeometry x="730" y="190" width="160" height="80" as="geometry" />
        </mxCell>
        <mxCell id="FxmKq2kwdO-IWyrq16No-77" value="&lt;u&gt;CategoryID&lt;/u&gt;" style="text;html=1;strokeColor=none;fillColor=none;align=left;verticalAlign=top;whiteSpace=wrap;rounded=0;" vertex="1" parent="FxmKq2kwdO-IWyrq16No-76">
          <mxGeometry x="10" y="8" width="140" height="16" as="geometry" />
        </mxCell>
        <mxCell id="FxmKq2kwdO-IWyrq16No-78" value="Име" style="text;html=1;strokeColor=none;fillColor=none;align=left;verticalAlign=top;whiteSpace=wrap;rounded=0;" vertex="1" parent="FxmKq2kwdO-IWyrq16No-76">
          <mxGeometry x="10" y="40" width="140" height="30" as="geometry" />
        </mxCell>
        <mxCell id="FxmKq2kwdO-IWyrq16No-79" value="&lt;font style=&quot;font-size: 14px;&quot;&gt;&lt;b&gt;Град&lt;/b&gt;&lt;/font&gt;" style="rounded=1;whiteSpace=wrap;html=1;fillColor=#ffe6cc;labelPosition=center;verticalLabelPosition=top;align=center;verticalAlign=bottom;" vertex="1" parent="1">
          <mxGeometry x="430" y="560" width="160" height="100" as="geometry" />
        </mxCell>
        <mxCell id="FxmKq2kwdO-IWyrq16No-80" value="&lt;u&gt;CityID&lt;/u&gt;" style="text;html=1;strokeColor=none;fillColor=none;align=left;verticalAlign=top;whiteSpace=wrap;rounded=0;" vertex="1" parent="FxmKq2kwdO-IWyrq16No-79">
          <mxGeometry x="10" y="10" width="140" height="20" as="geometry" />
        </mxCell>
        <mxCell id="FxmKq2kwdO-IWyrq16No-81" value="Име" style="text;html=1;strokeColor=none;fillColor=none;align=left;verticalAlign=top;whiteSpace=wrap;rounded=0;" vertex="1" parent="FxmKq2kwdO-IWyrq16No-79">
          <mxGeometry x="10" y="30" width="140" height="20" as="geometry" />
        </mxCell>
        <mxCell id="FxmKq2kwdO-IWyrq16No-82" value="Област" style="text;html=1;strokeColor=none;fillColor=none;align=left;verticalAlign=top;whiteSpace=wrap;rounded=0;" vertex="1" parent="FxmKq2kwdO-IWyrq16No-79">
          <mxGeometry x="10" y="50" width="140" height="20" as="geometry" />
        </mxCell>
        <mxCell id="FxmKq2kwdO-IWyrq16No-83" value="&lt;font style=&quot;font-size: 14px;&quot;&gt;&lt;b&gt;Снимка&lt;/b&gt;&lt;/font&gt;" style="rounded=1;whiteSpace=wrap;html=1;fillColor=#ffe6cc;labelPosition=center;verticalLabelPosition=top;align=center;verticalAlign=bottom;" vertex="1" parent="1">
          <mxGeometry x="570" y="390" width="160" height="80" as="geometry" />
        </mxCell>
        <mxCell id="FxmKq2kwdO-IWyrq16No-84" value="&lt;u&gt;PhotoID&lt;/u&gt;" style="text;html=1;strokeColor=none;fillColor=none;align=left;verticalAlign=top;whiteSpace=wrap;rounded=0;" vertex="1" parent="FxmKq2kwdO-IWyrq16No-83">
          <mxGeometry x="10" y="6.67" width="140" height="33.33" as="geometry" />
        </mxCell>
        <mxCell id="FxmKq2kwdO-IWyrq16No-86" value="URL" style="text;html=1;strokeColor=none;fillColor=none;align=left;verticalAlign=top;whiteSpace=wrap;rounded=0;" vertex="1" parent="FxmKq2kwdO-IWyrq16No-83">
          <mxGeometry x="10" y="40" width="140" height="30" as="geometry" />
        </mxCell>
        <mxCell id="FxmKq2kwdO-IWyrq16No-87" value="&lt;font style=&quot;font-size: 14px;&quot;&gt;&lt;b&gt;Любими&lt;/b&gt;&lt;/font&gt;" style="rounded=1;whiteSpace=wrap;html=1;fillColor=#dae8fc;labelPosition=center;verticalLabelPosition=top;align=center;verticalAlign=bottom;" vertex="1" parent="1">
          <mxGeometry x="-110" y="310" width="160" height="70" as="geometry" />
        </mxCell>
        <mxCell id="FxmKq2kwdO-IWyrq16No-88" value="&lt;u&gt;UserID&lt;/u&gt;" style="text;html=1;strokeColor=none;fillColor=none;align=left;verticalAlign=top;whiteSpace=wrap;rounded=0;" vertex="1" parent="FxmKq2kwdO-IWyrq16No-87">
          <mxGeometry x="10" y="6.997666666666668" width="140" height="23.333333333333332" as="geometry" />
        </mxCell>
        <mxCell id="FxmKq2kwdO-IWyrq16No-89" value="&lt;u&gt;&amp;nbsp;AdID&lt;/u&gt;" style="text;html=1;strokeColor=none;fillColor=none;align=left;verticalAlign=top;whiteSpace=wrap;rounded=0;" vertex="1" parent="FxmKq2kwdO-IWyrq16No-87">
          <mxGeometry x="10" y="30.33333333333334" width="140" height="23.333333333333332" as="geometry" />
        </mxCell>
        <mxCell id="0tdC7_IZy3TEFIUBJlUo-51" value="" style="edgeStyle=entityRelationEdgeStyle;fontSize=12;html=1;endArrow=ERoneToMany;rounded=0;exitX=0.003;exitY=0.359;exitDx=0;exitDy=0;exitPerimeter=0;entryX=1;entryY=1;entryDx=0;entryDy=0;" edge="1" parent="1" source="FxmKq2kwdO-IWyrq16No-79" target="FxmKq2kwdO-IWyrq16No-67">
          <mxGeometry width="100" height="100" relative="1" as="geometry">
            <mxPoint x="339.39999999999975" y="579.9999999999998" as="sourcePoint" />
            <mxPoint x="440.6" y="637.76" as="targetPoint" />
            <Array as="points">
              <mxPoint x="370" y="490" />
            </Array>
          </mxGeometry>
        </mxCell>
        <mxCell id="0tdC7_IZy3TEFIUBJlUo-52" value="" style="edgeStyle=entityRelationEdgeStyle;fontSize=12;html=1;endArrow=ERoneToMany;rounded=0;exitX=1;exitY=0.25;exitDx=0;exitDy=0;entryX=0.1;entryY=1.024;entryDx=0;entryDy=0;entryPerimeter=0;" edge="1" parent="1" source="FxmKq2kwdO-IWyrq16No-53" target="FxmKq2kwdO-IWyrq16No-67">
          <mxGeometry width="100" height="100" relative="1" as="geometry">
            <mxPoint x="420" y="736" as="sourcePoint" />
            <mxPoint x="238.7199999999998" y="561.4199999999996" as="targetPoint" />
          </mxGeometry>
        </mxCell>
        <mxCell id="0tdC7_IZy3TEFIUBJlUo-56" value="" style="edgeStyle=entityRelationEdgeStyle;fontSize=12;html=1;endArrow=ERoneToMany;rounded=0;exitX=0.404;exitY=1.003;exitDx=0;exitDy=0;exitPerimeter=0;entryX=0.68;entryY=-0.003;entryDx=0;entryDy=0;entryPerimeter=0;" edge="1" parent="1">
          <mxGeometry width="100" height="100" relative="1" as="geometry">
            <mxPoint x="290.0000000000003" y="289.99999999999955" as="sourcePoint" />
            <mxPoint x="350.1199999999997" y="389.12999999999965" as="targetPoint" />
          </mxGeometry>
        </mxCell>
        <mxCell id="0tdC7_IZy3TEFIUBJlUo-57" value="" style="edgeStyle=entityRelationEdgeStyle;fontSize=12;html=1;endArrow=ERoneToMany;rounded=0;exitX=-0.002;exitY=0.885;exitDx=0;exitDy=0;entryX=1;entryY=0.25;entryDx=0;entryDy=0;exitPerimeter=0;" edge="1" parent="1" source="FxmKq2kwdO-IWyrq16No-58" target="FxmKq2kwdO-IWyrq16No-67">
          <mxGeometry width="100" height="100" relative="1" as="geometry">
            <mxPoint x="420" y="390" as="sourcePoint" />
            <mxPoint x="500" y="360" as="targetPoint" />
          </mxGeometry>
        </mxCell>
        <mxCell id="0tdC7_IZy3TEFIUBJlUo-58" value="" style="edgeStyle=entityRelationEdgeStyle;fontSize=12;html=1;endArrow=ERoneToMany;rounded=0;exitX=0;exitY=0.5;exitDx=0;exitDy=0;entryX=1.02;entryY=0.587;entryDx=0;entryDy=0;entryPerimeter=0;" edge="1" parent="1" source="FxmKq2kwdO-IWyrq16No-76" target="FxmKq2kwdO-IWyrq16No-58">
          <mxGeometry width="100" height="100" relative="1" as="geometry">
            <mxPoint x="780" y="440" as="sourcePoint" />
            <mxPoint x="680" y="270" as="targetPoint" />
            <Array as="points">
              <mxPoint x="650" y="250" />
            </Array>
          </mxGeometry>
        </mxCell>
        <mxCell id="0tdC7_IZy3TEFIUBJlUo-59" value="" style="edgeStyle=entityRelationEdgeStyle;fontSize=12;html=1;endArrow=ERoneToMany;rounded=0;entryX=0;entryY=0.5;entryDx=0;entryDy=0;exitX=1.009;exitY=0.556;exitDx=0;exitDy=0;exitPerimeter=0;" edge="1" parent="1" source="FxmKq2kwdO-IWyrq16No-67" target="FxmKq2kwdO-IWyrq16No-83">
          <mxGeometry width="100" height="100" relative="1" as="geometry">
            <mxPoint x="430" y="470" as="sourcePoint" />
            <mxPoint x="540" y="420" as="targetPoint" />
          </mxGeometry>
        </mxCell>
        <mxCell id="0tdC7_IZy3TEFIUBJlUo-63" value="" style="edgeStyle=entityRelationEdgeStyle;fontSize=12;html=1;endArrow=ERoneToMany;rounded=0;entryX=0.875;entryY=0;entryDx=0;entryDy=0;entryPerimeter=0;exitX=-0.013;exitY=0.616;exitDx=0;exitDy=0;exitPerimeter=0;" edge="1" parent="1" source="FxmKq2kwdO-IWyrq16No-47" target="FxmKq2kwdO-IWyrq16No-87">
          <mxGeometry width="100" height="100" relative="1" as="geometry">
            <mxPoint x="-20" y="280" as="sourcePoint" />
            <mxPoint x="80" y="180" as="targetPoint" />
          </mxGeometry>
        </mxCell>
        <mxCell id="0tdC7_IZy3TEFIUBJlUo-64" value="" style="edgeStyle=entityRelationEdgeStyle;fontSize=12;html=1;endArrow=ERoneToMany;rounded=0;entryX=1;entryY=1;entryDx=0;entryDy=0;exitX=0.003;exitY=0.423;exitDx=0;exitDy=0;exitPerimeter=0;" edge="1" parent="1" source="FxmKq2kwdO-IWyrq16No-67" target="FxmKq2kwdO-IWyrq16No-87">
          <mxGeometry width="100" height="100" relative="1" as="geometry">
            <mxPoint x="-90" y="530" as="sourcePoint" />
            <mxPoint x="10" y="430" as="targetPoint" />
          </mxGeometry>
        </mxCell>
        <mxCell id="0tdC7_IZy3TEFIUBJlUo-66" value="Връзка много към много&lt;div&gt;между потребител и обява&lt;/div&gt;" style="text;html=1;align=center;verticalAlign=middle;resizable=0;points=[];autosize=1;strokeColor=none;fillColor=none;" vertex="1" parent="1">
          <mxGeometry x="40" y="325" width="170" height="40" as="geometry" />
        </mxCell>
      </root>
    </mxGraphModel>
  </diagram>
  <diagram name="UML Data Warehouse диаграма" id="JqVXfKJw5Vbw2Ji4G1zJ">
    <mxGraphModel dx="1665" dy="743" grid="1" gridSize="10" guides="1" tooltips="1" connect="1" arrows="1" fold="1" page="1" pageScale="1" pageWidth="827" pageHeight="1169" math="0" shadow="0">
      <root>
        <mxCell id="0" />
        <mxCell id="1" parent="0" />
        <mxCell id="tiTU269obb_awfB36aDN-1" value="Dim_Date" style="swimlane" parent="1" vertex="1">
          <mxGeometry x="60" y="540" width="160" height="140" as="geometry" />
        </mxCell>
        <mxCell id="tiTU269obb_awfB36aDN-2" value="&lt;u&gt;&lt;font style=&quot;font-size: 14px;&quot;&gt;DateID&lt;/font&gt;&lt;/u&gt;&lt;div&gt;&lt;font size=&quot;3&quot;&gt;Day&lt;/font&gt;&lt;/div&gt;&lt;div&gt;&lt;font size=&quot;3&quot;&gt;Month&amp;nbsp;&lt;/font&gt;&lt;/div&gt;&lt;div&gt;&lt;font size=&quot;3&quot;&gt;Year&amp;nbsp;&lt;/font&gt;&lt;/div&gt;&lt;div&gt;&lt;font size=&quot;3&quot;&gt;Quarter&lt;/font&gt;&lt;/div&gt;" style="text;html=1;strokeColor=none;fillColor=none;align=left;whiteSpace=wrap;" parent="tiTU269obb_awfB36aDN-1" vertex="1">
          <mxGeometry x="10" y="30" width="140" height="80" as="geometry" />
        </mxCell>
        <mxCell id="tiTU269obb_awfB36aDN-3" value="Dim_User" style="swimlane" parent="1" vertex="1">
          <mxGeometry x="350" y="20" width="160" height="180" as="geometry" />
        </mxCell>
        <mxCell id="tiTU269obb_awfB36aDN-4" value="&lt;u&gt;&lt;font style=&quot;font-size: 14px;&quot;&gt;UserID&lt;/font&gt;&lt;/u&gt;&lt;div&gt;&lt;font size=&quot;3&quot;&gt;FirstName&amp;nbsp;&lt;/font&gt;&lt;/div&gt;&lt;div&gt;&lt;font size=&quot;3&quot;&gt;LastName&amp;nbsp;&lt;/font&gt;&lt;/div&gt;&lt;div&gt;&lt;font size=&quot;3&quot;&gt;Identification number&lt;/font&gt;&lt;/div&gt;&lt;div&gt;&lt;font size=&quot;3&quot;&gt;Email&lt;/font&gt;&lt;/div&gt;&lt;div&gt;&lt;font size=&quot;3&quot;&gt;PhoneNumber&lt;/font&gt;&lt;/div&gt;&lt;div&gt;&lt;br&gt;&lt;/div&gt;" style="text;html=1;strokeColor=none;fillColor=none;align=left;whiteSpace=wrap;" parent="tiTU269obb_awfB36aDN-3" vertex="1">
          <mxGeometry x="10" y="30" width="140" height="60" as="geometry" />
        </mxCell>
        <mxCell id="tiTU269obb_awfB36aDN-5" value="Dim_Dealer" style="swimlane" parent="1" vertex="1">
          <mxGeometry x="590" y="180" width="160" height="130" as="geometry" />
        </mxCell>
        <mxCell id="tiTU269obb_awfB36aDN-6" value="&lt;u&gt;&lt;font style=&quot;font-size: 14px;&quot;&gt;DealerID&amp;nbsp;&amp;nbsp;&lt;/font&gt;&lt;/u&gt;&lt;div&gt;&lt;font size=&quot;3&quot;&gt;Name&amp;nbsp;&lt;/font&gt;&lt;/div&gt;&lt;div&gt;&lt;font size=&quot;3&quot;&gt;Address&lt;/font&gt;&lt;/div&gt;&lt;div&gt;&lt;font size=&quot;3&quot;&gt;Phone&lt;/font&gt;&lt;/div&gt;" style="text;html=1;strokeColor=none;fillColor=none;align=left;whiteSpace=wrap;" parent="tiTU269obb_awfB36aDN-5" vertex="1">
          <mxGeometry x="10" y="30" width="140" height="50" as="geometry" />
        </mxCell>
        <mxCell id="tiTU269obb_awfB36aDN-7" value="Dim_Car" style="swimlane" parent="1" vertex="1">
          <mxGeometry x="80" y="50" width="160" height="190" as="geometry" />
        </mxCell>
        <mxCell id="tiTU269obb_awfB36aDN-8" value="&lt;u&gt;&lt;font style=&quot;font-size: 14px;&quot;&gt;CarID&amp;nbsp;&lt;/font&gt;&lt;/u&gt;&lt;div&gt;&lt;font size=&quot;3&quot;&gt;Make&amp;nbsp;&lt;/font&gt;&lt;/div&gt;&lt;div&gt;&lt;font size=&quot;3&quot;&gt;Model&amp;nbsp;&lt;/font&gt;&lt;/div&gt;&lt;div&gt;&lt;font size=&quot;3&quot;&gt;Year&lt;/font&gt;&lt;/div&gt;&lt;div&gt;&lt;font size=&quot;3&quot;&gt;VIN&amp;nbsp;&lt;/font&gt;&lt;/div&gt;&lt;div&gt;&lt;font size=&quot;3&quot;&gt;CategoryID&lt;/font&gt;&lt;/div&gt;&lt;div&gt;&lt;span style=&quot;background-color: transparent; color: light-dark(rgb(0, 0, 0), rgb(255, 255, 255));&quot;&gt;&lt;font size=&quot;3&quot;&gt;HorsePower&amp;nbsp;&lt;/font&gt;&lt;/span&gt;&lt;/div&gt;&lt;div&gt;&lt;font size=&quot;3&quot;&gt;Mileage&lt;/font&gt;&lt;/div&gt;" style="text;html=1;strokeColor=none;fillColor=none;align=left;whiteSpace=wrap;" parent="tiTU269obb_awfB36aDN-7" vertex="1">
          <mxGeometry x="10" y="30" width="140" height="80" as="geometry" />
        </mxCell>
        <mxCell id="tiTU269obb_awfB36aDN-9" value="Dim_City" style="swimlane" parent="1" vertex="1">
          <mxGeometry x="30" y="390" width="160" height="100" as="geometry" />
        </mxCell>
        <mxCell id="tiTU269obb_awfB36aDN-10" value="&lt;font style=&quot;font-size: 14px;&quot;&gt;&lt;u&gt;CityID&lt;/u&gt;&amp;nbsp;&lt;/font&gt;&lt;div&gt;&lt;font size=&quot;3&quot;&gt;Name&amp;nbsp;&lt;/font&gt;&lt;/div&gt;&lt;div&gt;&lt;font size=&quot;3&quot;&gt;Region&lt;/font&gt;&lt;/div&gt;" style="text;html=1;strokeColor=none;fillColor=none;align=left;whiteSpace=wrap;" parent="tiTU269obb_awfB36aDN-9" vertex="1">
          <mxGeometry x="10" y="30" width="140" height="50" as="geometry" />
        </mxCell>
        <mxCell id="tiTU269obb_awfB36aDN-11" value="Dim_Category" style="swimlane" parent="1" vertex="1">
          <mxGeometry x="610" y="340" width="160" height="80" as="geometry" />
        </mxCell>
        <mxCell id="tiTU269obb_awfB36aDN-12" value="&lt;u&gt;&lt;font style=&quot;font-size: 14px;&quot;&gt;CategoryID&lt;/font&gt;&lt;/u&gt;&lt;div&gt;&lt;font size=&quot;3&quot;&gt;Name&lt;/font&gt;&lt;/div&gt;" style="text;html=1;strokeColor=none;fillColor=none;align=left;whiteSpace=wrap;" parent="tiTU269obb_awfB36aDN-11" vertex="1">
          <mxGeometry x="10" y="30" width="140" height="50" as="geometry" />
        </mxCell>
        <mxCell id="tiTU269obb_awfB36aDN-13" value="Fact_Ads" style="swimlane;fillColor=#dae8fc" parent="1" vertex="1">
          <mxGeometry x="290" y="230" width="200" height="230" as="geometry" />
        </mxCell>
        <mxCell id="tiTU269obb_awfB36aDN-14" value="&lt;font style=&quot;font-size: 14px;&quot;&gt;&lt;u&gt;AdID&amp;nbsp;&amp;nbsp;&lt;/u&gt;&lt;/font&gt;&lt;div&gt;&lt;font size=&quot;3&quot;&gt;UserID&amp;nbsp;&amp;nbsp;&lt;/font&gt;&lt;/div&gt;&lt;div&gt;&lt;font size=&quot;3&quot;&gt;DealerID&lt;/font&gt;&lt;/div&gt;&lt;div&gt;&lt;font size=&quot;3&quot;&gt;CarID&lt;/font&gt;&lt;/div&gt;&lt;div&gt;&lt;font size=&quot;3&quot;&gt;CityID&lt;/font&gt;&lt;/div&gt;&lt;div&gt;&lt;font size=&quot;3&quot;&gt;CategoryId&lt;/font&gt;&lt;/div&gt;&lt;div&gt;&lt;font size=&quot;3&quot;&gt;DateID&lt;/font&gt;&lt;/div&gt;&lt;div&gt;&lt;font size=&quot;3&quot;&gt;Price&lt;/font&gt;&lt;/div&gt;&lt;div&gt;&lt;font size=&quot;3&quot;&gt;Description&lt;/font&gt;&lt;/div&gt;" style="text;html=1;strokeColor=none;fillColor=none;align=left;whiteSpace=wrap;" parent="tiTU269obb_awfB36aDN-13" vertex="1">
          <mxGeometry x="10" y="30" width="180" height="150" as="geometry" />
        </mxCell>
        <mxCell id="tiTU269obb_awfB36aDN-15" value="Fact_Views" style="swimlane;fillColor=#dae8fc" parent="1" vertex="1">
          <mxGeometry x="330" y="510" width="180" height="130" as="geometry" />
        </mxCell>
        <mxCell id="tiTU269obb_awfB36aDN-16" value="&lt;u&gt;&lt;font style=&quot;font-size: 14px;&quot;&gt;ViewID&lt;/font&gt;&lt;/u&gt;&lt;div&gt;&lt;font size=&quot;3&quot;&gt;AdID&amp;nbsp;&lt;/font&gt;&lt;/div&gt;&lt;div&gt;&lt;font size=&quot;3&quot;&gt;UserID&amp;nbsp;&lt;/font&gt;&lt;/div&gt;&lt;div&gt;&lt;font size=&quot;3&quot;&gt;DateID&lt;/font&gt;&lt;/div&gt;" style="text;html=1;strokeColor=none;fillColor=none;align=left;whiteSpace=wrap;" parent="tiTU269obb_awfB36aDN-15" vertex="1">
          <mxGeometry x="10" y="30" width="160" height="50" as="geometry" />
        </mxCell>
        <mxCell id="tiTU269obb_awfB36aDN-17" value="Fact_Favorites" style="swimlane;fillColor=#dae8fc" parent="1" vertex="1">
          <mxGeometry x="560" y="492" width="180" height="118" as="geometry" />
        </mxCell>
        <mxCell id="tiTU269obb_awfB36aDN-18" value="&lt;div&gt;&lt;u&gt;&lt;font style=&quot;font-size: 14px;&quot;&gt;FavoriteId&lt;/font&gt;&lt;/u&gt;&lt;/div&gt;&lt;font size=&quot;3&quot;&gt;UserID&lt;/font&gt;&lt;div&gt;&lt;font size=&quot;3&quot;&gt;AdID&lt;/font&gt;&lt;/div&gt;&lt;div&gt;&lt;font size=&quot;3&quot;&gt;DateID&amp;nbsp;&lt;/font&gt;&lt;/div&gt;" style="text;html=1;strokeColor=none;fillColor=none;align=left;whiteSpace=wrap;" parent="tiTU269obb_awfB36aDN-17" vertex="1">
          <mxGeometry x="10" y="30" width="160" height="50" as="geometry" />
        </mxCell>
        <mxCell id="F3WJA_ZANEdJu8dDvGB2-2" value="" style="endArrow=none;html=1;rounded=0;entryX=0.007;entryY=0.175;entryDx=0;entryDy=0;exitX=0;exitY=0.5;exitDx=0;exitDy=0;entryPerimeter=0;" edge="1" parent="1" source="tiTU269obb_awfB36aDN-14" target="tiTU269obb_awfB36aDN-8">
          <mxGeometry width="50" height="50" relative="1" as="geometry">
            <mxPoint x="290" y="330" as="sourcePoint" />
            <mxPoint x="220" y="250" as="targetPoint" />
            <Array as="points">
              <mxPoint x="110" y="330" />
              <mxPoint x="40" y="330" />
              <mxPoint x="40" y="94" />
            </Array>
          </mxGeometry>
        </mxCell>
        <mxCell id="F3WJA_ZANEdJu8dDvGB2-3" value="" style="endArrow=none;html=1;rounded=0;entryX=0;entryY=0.25;entryDx=0;entryDy=0;exitX=0;exitY=0.25;exitDx=0;exitDy=0;" edge="1" parent="1" source="tiTU269obb_awfB36aDN-14" target="tiTU269obb_awfB36aDN-4">
          <mxGeometry width="50" height="50" relative="1" as="geometry">
            <mxPoint x="250" y="310" as="sourcePoint" />
            <mxPoint x="241" y="160" as="targetPoint" />
            <Array as="points">
              <mxPoint x="270" y="298" />
              <mxPoint x="270" y="200" />
              <mxPoint x="270" y="65" />
            </Array>
          </mxGeometry>
        </mxCell>
        <mxCell id="F3WJA_ZANEdJu8dDvGB2-8" value="" style="endArrow=none;html=1;rounded=0;entryX=1;entryY=0.5;entryDx=0;entryDy=0;exitX=-0.006;exitY=0.833;exitDx=0;exitDy=0;exitPerimeter=0;" edge="1" parent="1" source="tiTU269obb_awfB36aDN-14" target="tiTU269obb_awfB36aDN-1">
          <mxGeometry width="50" height="50" relative="1" as="geometry">
            <mxPoint x="250" y="390" as="sourcePoint" />
            <mxPoint x="240" y="600" as="targetPoint" />
            <Array as="points">
              <mxPoint x="250" y="385" />
              <mxPoint x="250" y="600" />
            </Array>
          </mxGeometry>
        </mxCell>
        <mxCell id="F3WJA_ZANEdJu8dDvGB2-12" value="" style="endArrow=none;html=1;rounded=0;exitX=0.971;exitY=0.15;exitDx=0;exitDy=0;exitPerimeter=0;" edge="1" parent="1" source="tiTU269obb_awfB36aDN-2" target="tiTU269obb_awfB36aDN-16">
          <mxGeometry width="50" height="50" relative="1" as="geometry">
            <mxPoint x="220" y="647.5" as="sourcePoint" />
            <mxPoint x="330" y="648" as="targetPoint" />
          </mxGeometry>
        </mxCell>
        <mxCell id="F3WJA_ZANEdJu8dDvGB2-9" value="" style="endArrow=none;html=1;rounded=0;exitX=1;exitY=0.25;exitDx=0;exitDy=0;entryX=0;entryY=0.25;entryDx=0;entryDy=0;" edge="1" parent="1" source="tiTU269obb_awfB36aDN-15" target="tiTU269obb_awfB36aDN-18">
          <mxGeometry width="50" height="50" relative="1" as="geometry">
            <mxPoint x="580" y="590" as="sourcePoint" />
            <mxPoint x="630" y="540" as="targetPoint" />
          </mxGeometry>
        </mxCell>
        <mxCell id="F3WJA_ZANEdJu8dDvGB2-5" value="" style="endArrow=none;html=1;rounded=0;entryX=0;entryY=0.25;entryDx=0;entryDy=0;exitX=1;exitY=0.75;exitDx=0;exitDy=0;" edge="1" parent="1" source="tiTU269obb_awfB36aDN-14" target="tiTU269obb_awfB36aDN-12">
          <mxGeometry width="50" height="50" relative="1" as="geometry">
            <mxPoint x="490" y="340" as="sourcePoint" />
            <mxPoint x="690" y="330" as="targetPoint" />
          </mxGeometry>
        </mxCell>
        <mxCell id="F3WJA_ZANEdJu8dDvGB2-6" value="" style="endArrow=none;html=1;rounded=0;entryX=0;entryY=0.25;entryDx=0;entryDy=0;exitX=0.011;exitY=0.607;exitDx=0;exitDy=0;exitPerimeter=0;" edge="1" parent="1" source="tiTU269obb_awfB36aDN-14" target="tiTU269obb_awfB36aDN-10">
          <mxGeometry width="50" height="50" relative="1" as="geometry">
            <mxPoint x="290" y="350" as="sourcePoint" />
            <mxPoint x="110" y="370" as="targetPoint" />
            <Array as="points">
              <mxPoint x="110" y="350" />
              <mxPoint x="10" y="350" />
              <mxPoint x="10" y="430" />
              <mxPoint x="20" y="430" />
            </Array>
          </mxGeometry>
        </mxCell>
        <mxCell id="F3WJA_ZANEdJu8dDvGB2-4" value="" style="endArrow=none;html=1;rounded=0;exitX=0.989;exitY=0.333;exitDx=0;exitDy=0;entryX=0;entryY=0.25;entryDx=0;entryDy=0;exitPerimeter=0;" edge="1" parent="1" source="tiTU269obb_awfB36aDN-14" target="tiTU269obb_awfB36aDN-6">
          <mxGeometry width="50" height="50" relative="1" as="geometry">
            <mxPoint x="490" y="310" as="sourcePoint" />
            <mxPoint x="620" y="230" as="targetPoint" />
            <Array as="points">
              <mxPoint x="550" y="310" />
              <mxPoint x="550" y="223" />
            </Array>
          </mxGeometry>
        </mxCell>
      </root>
    </mxGraphModel>
  </diagram>
</mxfile>
